# xmcd CD database file
#
# Track frame offsets:
#	150
#	12601
#	26670
#	39367
#	50247
#	60602
#	73910
#	86481
#	99949
#	114185
#	128101
#	141411
#	152967
#	166197
#	180594
#	195268
#	208452
#	222984
#	233961
#	248467
#
# Disc length: 3461 seconds
#
# Revision: 8
# Processed by: cddbd v1.5.2PL0 Copyright (c) Steve Scherf et al.
# Submitted via: CDex 1.51
#
DISCID=1d0d8314
DTITLE=Glenn Miller - Vol.03 - In The Mood
DYEAR=1900
DGENRE=Jazz
TTITLE0=Say It
TTITLE1=Moments In The Moonlight
TTITLE2=Hear My Song, Violetta
TTITLE3=Sierra Sue
TTITLE4=Boog It
TTITLE5=Yours Is My Heart Alone
TTITLE6=I'm Stepping Out With My Memory Tonight
TTITLE7=Alice Blue Gown
TTITLE8=Wonderful One
TTITLE9=Devil May Care
TTITLE10=April Played The Fiddle
TTITLE11=Fools Rush In  (Where Angels Fear To Tread)
TTITLE12=I Haven't Time To Be A Millionaire
TTITLE13=Slow Freight
TTITLE14=Pennsylvania 6-5000
TTITLE15=Bugle Call Rag
TTITLE16=The Nearness Of You
TTITLE17=Mister Meadowlark
TTITLE18=My Blue Heaven
TTITLE19=My! My!
EXTD=Vol 3 of a 10 CD box\n\n(P) 2000 Trumpets Of Jericho Ltd.\n(C) 2000 TIM The International Music Company AG\n\nOder No. 204273\n
EXTT0=
EXTT1=
EXTT2=
EXTT3=
EXTT4=
EXTT5=
EXTT6=
EXTT7=
EXTT8=
EXTT9=
EXTT10=
EXTT11=
EXTT12=
EXTT13=
EXTT14=
EXTT15=
EXTT16=
EXTT17=
EXTT18=
EXTT19=
PLAYORDER=
